<svg xmlns="http://www.w3.org/2000/svg" width="16" height="16" viewBox="0 0 16 16" fill="currentColor"><path d="M7.99560417,12 C8.20686806,12 8.38541667,11.9285486 8.53125,11.7856458 C8.67708333,11.6427292 8.75,11.4656458 8.75,11.2543958 C8.75,11.0431319 8.67854861,10.8645833 8.53564583,10.71875 C8.39272917,10.5729167 8.21564583,10.5 8.00439583,10.5 C7.79313194,10.5 7.61458333,10.5714514 7.46875,10.7143542 C7.32291667,10.8572708 7.25,11.0343542 7.25,11.2456042 C7.25,11.4568681 7.32145139,11.6354167 7.46435417,11.78125 C7.60727083,11.9270833 7.78435417,12 7.99560417,12 Z M7.25,9 L8.75,9 L8.75,4 L7.25,4 L7.25,9 Z M8.00575,16 C6.90469444,16 5.86805556,15.7916667 4.89583333,15.375 C3.92361111,14.9583333 3.07291667,14.3854167 2.34375,13.65625 C1.61458333,12.9270833 1.04166667,12.0766806 0.625,11.1050417 C0.208333333,10.1333889 0,9.09519444 0,7.99045833 C0,6.88570833 0.208333333,5.85069444 0.625,4.88541667 C1.04166667,3.92013889 1.61458333,3.07291667 2.34375,2.34375 C3.07291667,1.61458333 3.92331944,1.04166667 4.89495833,0.625 C5.86661111,0.208333333 6.90480556,0 8.00954167,0 C9.11429167,0 10.1493056,0.208333333 11.1145833,0.625 C12.0798611,1.04166667 12.9270833,1.61458333 13.65625,2.34375 C14.3854167,3.07291667 14.9583333,3.92169444 15.375,4.89008333 C15.7916667,5.85848611 16,6.89320833 16,7.99425 C16,9.09530556 15.7916667,10.1319444 15.375,11.1041667 C14.9583333,12.0763889 14.3854167,12.9270833 13.65625,13.65625 C12.9270833,14.3854167 12.0783056,14.9583333 11.1099167,15.375 C10.1415139,15.7916667 9.10679167,16 8.00575,16 Z"/></svg>
