<svg xmlns="http://www.w3.org/2000/svg" width="20" height="20" viewBox="0 0 20 20" fill="currentColor"><path d="M9.10714286,0 C9.20576513,0 9.28571429,0.0799491518 9.28571429,0.178571429 L9.28571429,6.42857143 C9.28571429,7.61203875 10.2451041,8.57142857 11.4285714,8.57142857 L17.6785714,8.57142857 C17.7771937,8.57142857 17.8571429,8.65137772 17.8571429,8.75 L17.8571429,17.1428571 C17.8571429,18.7208136 16.5779564,20 15,20 L5,20 C3.42204357,20 2.14285714,18.7208136 2.14285714,17.1428571 L2.14285714,2.85714286 C2.14285714,1.27918643 3.42204357,0 5,0 Z M13.5714286,14.2857143 L6.42857143,14.2857143 C6.03408232,14.2857143 5.71428571,14.6055109 5.71428571,15 C5.71428571,15.3944891 6.03408232,15.7142857 6.42857143,15.7142857 L13.5714286,15.7142857 C13.9659177,15.7142857 14.2857143,15.3944891 14.2857143,15 C14.2857143,14.6055109 13.9659177,14.2857143 13.5714286,14.2857143 Z M13.5714286,10.7142857 L6.42857143,10.7142857 C6.03408232,10.7142857 5.71428571,11.0340823 5.71428571,11.4285714 C5.71428571,11.8230605 6.03408232,12.1428571 6.42857143,12.1428571 L13.5714286,12.1428571 C13.9659177,12.1428571 14.2857143,11.8230605 14.2857143,11.4285714 C14.2857143,11.0340823 13.9659177,10.7142857 13.5714286,10.7142857 Z M10.7694535,0.551346669 C10.8027183,0.537592012 10.8409893,0.545157962 10.8665179,0.570535714 L17.2866071,6.990625 C17.3119849,7.01615357 17.3195508,7.05442459 17.3057962,7.0876894 C17.2920415,7.1209542 17.2596568,7.14270601 17.2236607,7.14285714 L11.4285714,7.14285714 C11.0340823,7.14285714 10.7142857,6.82306054 10.7142857,6.42857143 L10.7142857,0.633482143 C10.7144368,0.597486099 10.7361887,0.565101326 10.7694535,0.551346669 Z"/></svg>
