<svg xmlns="http://www.w3.org/2000/svg" width="16" height="16" viewBox="0 0 16 16" fill="currentColor"><path d="M8,13 C8.27777778,13 8.51388889,12.9027778 8.70833333,12.7083333 C8.90277778,12.5138889 9,12.2777778 9,12 C9,11.7222222 8.90277778,11.4861111 8.70833333,11.2916667 C8.51388889,11.0972222 8.27777778,11 8,11 C7.72222222,11 7.48611111,11.0972222 7.29166667,11.2916667 C7.09722222,11.4861111 7,11.7222222 7,12 C7,12.2777778 7.09722222,12.5138889 7.29166667,12.7083333 C7.48611111,12.9027778 7.72222222,13 8,13 Z M7.25,9.8125 L8.77083333,9.8125 C8.77083333,9.29861111 8.81597222,8.93402778 8.90625,8.71875 C8.99652778,8.50347222 9.21527778,8.22916667 9.5625,7.89583333 C10.0486111,7.42361111 10.3854167,7.02083333 10.5729167,6.6875 C10.7604167,6.35416667 10.8541667,5.98611111 10.8541667,5.58333333 C10.8541667,4.81944444 10.59375,4.19791667 10.0729167,3.71875 C9.55208333,3.23958333 8.88888889,3 8.08333333,3 C7.375,3 6.76041667,3.1875 6.23958333,3.5625 C5.71875,3.9375 5.35416667,4.44444444 5.14583333,5.08333333 L6.5,5.64583333 C6.625,5.25694444 6.82291667,4.95486111 7.09375,4.73958333 C7.36458333,4.52430556 7.68055556,4.41666667 8.04166667,4.41666667 C8.43055556,4.41666667 8.75,4.52777778 9,4.75 C9.25,4.97222222 9.375,5.26388889 9.375,5.625 C9.375,5.94444444 9.26736111,6.22916667 9.05208333,6.47916667 C8.83680556,6.72916667 8.59722222,6.97222222 8.33333333,7.20833333 C7.84722222,7.65277778 7.54513889,8.01736111 7.42708333,8.30208333 C7.30902778,8.58680556 7.25,9.09027778 7.25,9.8125 Z M8,16 C6.90277778,16 5.86805556,15.7916667 4.89583333,15.375 C3.92361111,14.9583333 3.07291667,14.3854167 2.34375,13.65625 C1.61458333,12.9270833 1.04166667,12.0763889 0.625,11.1041667 C0.208333333,10.1319444 0,9.09722222 0,8 C0,6.88888889 0.208333333,5.85069444 0.625,4.88541667 C1.04166667,3.92013889 1.61458333,3.07291667 2.34375,2.34375 C3.07291667,1.61458333 3.92361111,1.04166667 4.89583333,0.625 C5.86805556,0.208333333 6.90277778,0 8,0 C9.11111111,0 10.1493056,0.208333333 11.1145833,0.625 C12.0798611,1.04166667 12.9270833,1.61458333 13.65625,2.34375 C14.3854167,3.07291667 14.9583333,3.92013889 15.375,4.88541667 C15.7916667,5.85069444 16,6.88888889 16,8 C16,9.09722222 15.7916667,10.1319444 15.375,11.1041667 C14.9583333,12.0763889 14.3854167,12.9270833 13.65625,13.65625 C12.9270833,14.3854167 12.0798611,14.9583333 11.1145833,15.375 C10.1493056,15.7916667 9.11111111,16 8,16 Z"/></svg>
