<svg xmlns="http://www.w3.org/2000/svg" width="16" height="16" viewBox="0 0 16 16" fill="currentColor"><path d="M6.9375,11 L11.8958333,6.0625 L10.8333333,5 L6.9375,8.875 L5.16666667,7.125 L4.10416667,8.1875 L6.9375,11 Z M8,16 C6.90277778,16 5.86805556,15.7916667 4.89583333,15.375 C3.92361111,14.9583333 3.07291667,14.3854167 2.34375,13.65625 C1.61458333,12.9270833 1.04166667,12.0763889 0.625,11.1041667 C0.208333333,10.1319444 0,9.09722222 0,8 C0,6.88888889 0.208333333,5.85069444 0.625,4.88541667 C1.04166667,3.92013889 1.61458333,3.07291667 2.34375,2.34375 C3.07291667,1.61458333 3.92361111,1.04166667 4.89583333,0.625 C5.86805556,0.208333333 6.90277778,0 8,0 C9.11111111,0 10.1493056,0.208333333 11.1145833,0.625 C12.0798611,1.04166667 12.9270833,1.61458333 13.65625,2.34375 C14.3854167,3.07291667 14.9583333,3.92013889 15.375,4.88541667 C15.7916667,5.85069444 16,6.88888889 16,8 C16,9.09722222 15.7916667,10.1319444 15.375,11.1041667 C14.9583333,12.0763889 14.3854167,12.9270833 13.65625,13.65625 C12.9270833,14.3854167 12.0798611,14.9583333 11.1145833,15.375 C10.1493056,15.7916667 9.11111111,16 8,16 Z"/></svg>
