<svg version="1" xmlns="http://www.w3.org/2000/svg" width="682.667" height="682.667" viewBox="0 0 512.000000 512.000000"><path d="M246.5.7C182 3.1 121.3 29.6 75.4 75.4 34.1 116.8 8.8 169.3 2 228 .5 240.2.5 271.8 2 284c6.8 58.7 32.1 111.2 73.4 152.6 36.1 36.1 81.1 60.2 130.3 69.8 18.9 3.7 29.7 4.7 50.3 4.7 44.7 0 82.7-9.5 121.5-30.5 66.9-36.1 114.4-100.4 128.9-174.3 3.7-18.9 4.7-29.7 4.7-50.3 0-44.7-9.5-82.7-30.5-121.5-36-66.6-99.9-114-173.8-128.9C288.5 2 264.7 0 246.5.7zm49 18.2c25 4.5 46.4 11.5 67.7 22.1 24.9 12.6 41.7 24.7 62.4 45.4 20.7 20.7 32.8 37.5 45.4 62.4 10.8 21.6 18.4 45.2 22.7 70.7 2.6 15.7 2.6 57.3 0 73-6.8 40.5-21.7 75.8-46 108.5-9.1 12.2-34.5 37.6-46.7 46.7-32.7 24.3-68 39.2-108.5 46-15.7 2.6-57.3 2.6-73 0-40.5-6.8-75.8-21.7-108.5-46-12.2-9.1-37.6-34.5-46.7-46.7-24.3-32.7-39.2-68-46-108.5-2.6-15.7-2.6-57.3 0-73C25.1 179 40 143.7 64.3 111c9.1-12.2 34.5-37.6 46.7-46.7 36.6-27.1 74.7-42 122-47.7 1.9-.2 14.1-.3 27-.1 18.6.2 26 .7 35.5 2.4z"/><path d="M240.5 122c-22.1 3.3-45.7 16.6-59.2 33.2-5.5 6.8-12.1 17.2-14.2 22.4-1.1 2.9-1.9 3.2-11.9 5.7-19.4 4.8-37.5 15.7-48.6 29.2-5.4 6.7-12.7 21.2-14.7 29.5-2 8-1.8 27.9.4 36 .9 3.6 3.8 10.8 6.4 16 3.9 8.1 6 10.9 13.7 18.5 12.8 12.7 27.3 20.4 45 24.1 7.9 1.7 51.9 3.1 58.1 2 5.5-1.1 8.5-4.5 8.5-10 0-3.7-.5-4.8-2.9-6.9-2.9-2.4-3.1-2.4-29.3-3-22.4-.4-27.5-.8-34.1-2.6-27.6-7.3-45.8-28-47.4-53.6-.8-13.5 2.7-25.1 11-36 9.9-13.2 29.7-23.5 49.7-25.9 3-.4 6.5-1.5 7.7-2.4 1.2-.9 3.6-5 5.2-9 7.1-17.2 20.5-31.7 36.4-39.6 13.7-6.7 19.7-8 36.2-8 12.2.1 15.1.4 22.8 2.8 14.1 4.2 23.5 9.6 33.6 19.1 13.6 12.8 23.9 34.2 26.6 55.3 1 7.8 3.4 10.1 11.9 11.3 30.2 4.2 48.7 19.3 50.3 41.1 1.4 17.9-7.1 32.8-23.2 40.6-12 5.9-15.8 6.4-52.3 7.1l-33.4.6-2.4 2.8c-5.1 6-1.8 14.8 6 16.2 2 .4 17.5.5 34.4.3 29-.5 31.2-.7 40.4-3.1 33.4-8.8 52.2-32.9 50.5-64.7-.9-16.4-6.2-27.6-19.2-39.8-8.7-8.3-21.2-14.9-34.9-18.5l-9-2.4-2.2-8.9c-5.2-20.8-14.7-37.7-28.5-51.1-14.6-14-27.2-21.2-45.9-26-10.7-2.7-31.1-3.9-41.5-2.3z"/><path d="M252.5 204.9c-1.1.5-12.3 11.3-24.8 23.9-21.2 21.2-22.9 23.2-23 26.5-.2 6.7 5.9 11.8 12.1 10.2 1.6-.4 8.2-6.1 15.9-13.8l13.3-13.1v72.3c0 65.7.2 72.6 1.7 75.1 2.7 4.7 7.7 6.1 12.8 3.8 5.6-2.6 5.5-.5 5.5-79v-72.3l12.8 12.7c7 6.9 13.8 13.1 15.1 13.8 5.9 3 13.6-2.1 13.6-9.1 0-3.8-.8-4.7-23.5-27.4-24.2-24.2-26.4-25.8-31.5-23.6z"/></svg>